# Blender v3.2.0 OBJ File: ''
# www.blender.org
mtllib untitled.mtl
o Arrow_Cone.001
v 0.000000 1.000000 -0.900000
v 0.344415 1.000000 -0.831492
v 0.636396 1.000000 -0.636396
v 0.831492 1.000000 -0.344415
v 0.900000 1.000000 0.000000
v 0.831492 1.000000 0.344415
v 0.636396 1.000000 0.636396
v 0.344415 1.000000 0.831492
v -0.000000 1.000000 0.900000
v -0.344415 1.000000 0.831492
v -0.636396 1.000000 0.636396
v -0.831492 1.000000 0.344415
v -0.900000 1.000000 -0.000000
v -0.831492 1.000000 -0.344415
v -0.636396 1.000000 -0.636396
v -0.344415 1.000000 -0.831492
v 0.000000 2.750000 0.000000
v -0.000000 1.000000 -0.349661
v 0.133809 1.000000 -0.323044
v 0.247247 1.000000 -0.247247
v 0.323044 1.000000 -0.133809
v 0.349661 1.000000 0.000000
v 0.323044 1.000000 0.133809
v 0.247247 1.000000 0.247247
v 0.133809 1.000000 0.323044
v -0.000000 1.000000 0.349661
v -0.133809 1.000000 0.323044
v -0.247247 1.000000 0.247247
v -0.323044 1.000000 0.133809
v -0.349661 1.000000 0.000000
v -0.323044 1.000000 -0.133809
v -0.247247 1.000000 -0.247247
v -0.133809 1.000000 -0.323044
v 0.133809 0.000000 -0.323044
v 0.000000 0.000000 0.000000
v -0.000000 0.000000 -0.349661
v 0.247247 0.000000 -0.247247
v 0.323044 0.000000 -0.133809
v 0.349661 0.000000 0.000000
v 0.323044 0.000000 0.133809
v 0.247247 0.000000 0.247247
v 0.133809 0.000000 0.323044
v -0.000000 0.000000 0.349661
v -0.133809 0.000000 0.323044
v -0.247247 0.000000 0.247247
v -0.323044 0.000000 0.133809
v -0.349661 0.000000 0.000000
v -0.323044 0.000000 -0.133809
v -0.247247 0.000000 -0.247247
v -0.133809 0.000000 -0.323044
vt 0.827531 0.217886
vt 0.809339 0.190661
vt 0.809339 0.190661
vt 0.827531 0.217886
vt 0.250000 0.490000
vt 0.250000 0.250000
vt 0.341844 0.471731
vt 0.666081 0.250000
vt 0.672469 0.282114
vt 0.672469 0.282114
vt 0.666081 0.250000
vt 0.419706 0.419706
vt 0.833919 0.250000
vt 0.833919 0.250000
vt 0.471731 0.341844
vt 0.672469 0.217886
vt 0.672469 0.217886
vt 0.490000 0.250000
vt 0.827531 0.282114
vt 0.827531 0.282114
vt 0.471731 0.158156
vt 0.690661 0.190661
vt 0.690661 0.190661
vt 0.419706 0.080294
vt 0.809339 0.309339
vt 0.809339 0.309339
vt 0.341844 0.028269
vt 0.717886 0.172469
vt 0.717886 0.172469
vt 0.250000 0.010000
vt 0.782114 0.327531
vt 0.782114 0.327531
vt 0.158156 0.028269
vt 0.750000 0.166081
vt 0.750000 0.166081
vt 0.080294 0.080294
vt 0.717886 0.327531
vt 0.750000 0.333919
vt 0.750000 0.333919
vt 0.717886 0.327531
vt 0.028269 0.158156
vt 0.010000 0.250000
vt 0.782114 0.172469
vt 0.782114 0.172469
vt 0.028269 0.341844
vt 0.690661 0.309339
vt 0.690661 0.309339
vt 0.080294 0.419706
vt 0.158156 0.471731
vt 0.750000 0.490000
vt 0.841844 0.471731
vt 0.919706 0.419706
vt 0.971731 0.341844
vt 0.990000 0.250000
vt 0.971731 0.158156
vt 0.919706 0.080294
vt 0.841844 0.028269
vt 0.750000 0.010000
vt 0.658156 0.028269
vt 0.580294 0.080294
vt 0.528269 0.158156
vt 0.510000 0.250000
vt 0.528269 0.341844
vt 0.580294 0.419706
vt 0.658156 0.471731
vt 0.750000 0.250000
vn 0.8315 0.0000 0.5556
vn 0.1742 0.4504 -0.8757
vn -0.9808 0.0000 -0.1951
vn 0.4960 0.4504 -0.7424
vn 0.9808 0.0000 0.1951
vn 0.7424 0.4504 -0.4960
vn -0.9808 0.0000 0.1951
vn 0.8757 0.4504 -0.1742
vn 0.9808 0.0000 -0.1951
vn 0.8757 0.4504 0.1742
vn -0.8315 0.0000 0.5556
vn 0.7424 0.4504 0.4960
vn 0.8315 0.0000 -0.5556
vn 0.4960 0.4504 0.7424
vn -0.5556 0.0000 0.8315
vn 0.1742 0.4504 0.8757
vn 0.5556 0.0000 -0.8315
vn -0.1742 0.4504 0.8757
vn -0.1951 0.0000 0.9808
vn -0.4960 0.4504 0.7424
vn -0.1951 0.0000 -0.9808
vn -0.7424 0.4504 0.4960
vn 0.1951 0.0000 -0.9808
vn -0.8757 0.4504 0.1742
vn 0.1951 0.0000 0.9808
vn -0.8757 0.4504 -0.1742
vn -0.5556 0.0000 -0.8315
vn -0.7424 0.4504 -0.4960
vn 0.5556 0.0000 0.8315
vn -0.4960 0.4504 -0.7424
vn -0.8315 0.0000 -0.5556
vn -0.1742 0.4504 -0.8757
vn 0.0000 -1.0000 0.0000
usemtl None
s off
f 23/1/1 24/2/1 41/3/1 40/4/1
f 1/5/2 17/6/2 2/7/2
f 30/8/3 31/9/3 48/10/3 47/11/3
f 2/7/4 17/6/4 3/12/4
f 22/13/5 23/1/5 40/4/5 39/14/5
f 3/12/6 17/6/6 4/15/6
f 29/16/7 30/8/7 47/11/7 46/17/7
f 4/15/8 17/6/8 5/18/8
f 21/19/9 22/13/9 39/14/9 38/20/9
f 5/18/10 17/6/10 6/21/10
f 28/22/11 29/16/11 46/17/11 45/23/11
f 6/21/12 17/6/12 7/24/12
f 20/25/13 21/19/13 38/20/13 37/26/13
f 7/24/14 17/6/14 8/27/14
f 27/28/15 28/22/15 45/23/15 44/29/15
f 8/27/16 17/6/16 9/30/16
f 19/31/17 20/25/17 37/26/17 34/32/17
f 9/30/18 17/6/18 10/33/18
f 26/34/19 27/28/19 44/29/19 43/35/19
f 10/33/20 17/6/20 11/36/20
f 33/37/21 18/38/21 36/39/21 50/40/21
f 11/36/22 17/6/22 12/41/22
f 18/38/23 19/31/23 34/32/23 36/39/23
f 12/41/24 17/6/24 13/42/24
f 25/43/25 26/34/25 43/35/25 42/44/25
f 13/42/26 17/6/26 14/45/26
f 32/46/27 33/37/27 50/40/27 49/47/27
f 14/45/28 17/6/28 15/48/28
f 24/2/29 25/43/29 42/44/29 41/3/29
f 15/48/30 17/6/30 16/49/30
f 31/9/31 32/46/31 49/47/31 48/10/31
f 16/49/32 17/6/32 1/5/32
f 19/31/33 18/38/33 1/50/33 2/51/33
f 20/25/33 19/31/33 2/51/33 3/52/33
f 21/19/33 20/25/33 3/52/33 4/53/33
f 22/13/33 21/19/33 4/53/33 5/54/33
f 23/1/33 22/13/33 5/54/33 6/55/33
f 24/2/33 23/1/33 6/55/33 7/56/33
f 25/43/33 24/2/33 7/56/33 8/57/33
f 26/34/33 25/43/33 8/57/33 9/58/33
f 27/28/33 26/34/33 9/58/33 10/59/33
f 28/22/33 27/28/33 10/59/33 11/60/33
f 29/16/33 28/22/33 11/60/33 12/61/33
f 30/8/33 29/16/33 12/61/33 13/62/33
f 31/9/33 30/8/33 13/62/33 14/63/33
f 32/46/33 31/9/33 14/63/33 15/64/33
f 33/37/33 32/46/33 15/64/33 16/65/33
f 18/38/33 33/37/33 16/65/33 1/50/33
f 35/66/33 36/39/33 34/32/33
f 35/66/33 34/32/33 37/26/33
f 35/66/33 37/26/33 38/20/33
f 35/66/33 38/20/33 39/14/33
f 35/66/33 39/14/33 40/4/33
f 35/66/33 40/4/33 41/3/33
f 35/66/33 41/3/33 42/44/33
f 35/66/33 42/44/33 43/35/33
f 35/66/33 43/35/33 44/29/33
f 35/66/33 44/29/33 45/23/33
f 35/66/33 45/23/33 46/17/33
f 35/66/33 46/17/33 47/11/33
f 35/66/33 47/11/33 48/10/33
f 35/66/33 48/10/33 49/47/33
f 35/66/33 49/47/33 50/40/33
f 35/66/33 50/40/33 36/39/33
